<svg xmlns="http://www.w3.org/2000/svg" version="1.1" xmlns:xlink="http://www.w3.org/1999/xlink" xmlns:svgjs="http://svgjs.com/svgjs" width="1600" height="900" preserveAspectRatio="none" viewBox="0 0 1600 900"><g mask="url(&quot;#SvgjsMask1194&quot;)" fill="none"><rect width="1600" height="900" x="0" y="0" fill="rgba(238, 238, 238, 1)"></rect><path d="M 0,380 C 64,317 192,61.4 320,65 C 448,68.6 512,384.2 640,398 C 768,411.8 832,149.4 960,134 C 1088,118.6 1152,330.8 1280,321 C 1408,311.2 1536,132.2 1600,85L1600 900L0 900z" fill="rgba(232, 230, 230, 1)"></path><path d="M 0,688 C 106.8,675.4 320.4,592.8 534,625 C 747.6,657.2 854.8,869.6 1068,849 C 1281.2,828.4 1493.6,587.4 1600,522L1600 900L0 900z" fill="rgba(235, 235, 235, 1)"></path></g><defs><mask id="SvgjsMask1194"><rect width="1600" height="900" fill="#ffffff"></rect></mask></defs></svg>